<svg xmlns="http://www.w3.org/2000/svg" width="133" height="21" viewBox="0 0 262 42"><path fill-rule="evenodd" fill="#FFF" d="M260.603 37.646c.185.399.557.682 1.113.849.334.111 1.447.167 3.34.167V41h-14.862v-2.338h1.085c1.373 0 2.287-.092 2.742-.276.454-.184.746-.479.876-.885.112-.313.167-1.299.167-2.958V22.464h-20.122v12.385c0 1.466.097 2.403.292 2.811.195.409.571.687 1.127.835.408.111 1.568.167 3.479.167V41h-14.973v-2.338h.946c1.447 0 2.352-.079 2.714-.236.361-.158.649-.46.862-.905.213-.445.32-1.234.32-2.366V8.409c0-1.215-.097-2.056-.292-2.523a2.014 2.014 0 0 0-.918-1.037c-.418-.225-1.109-.337-2.074-.337h-1.558V2.174h14.973v2.338h-1.03c-1.187 0-2.036.112-2.546.336-.511.225-.868.617-1.072 1.178-.167.411-.25 1.279-.25 2.605v10.827h20.122V8.91c0-1.438-.046-2.306-.139-2.605-.149-.598-.469-1.046-.96-1.344-.492-.299-1.239-.449-2.24-.449h-1.531V2.174h14.862v2.338h-1.336c-1.039 0-1.777.117-2.213.351-.436.234-.742.551-.918.953-.177.402-.264 1.266-.264 2.593v26.44c0 1.466.092 2.398.278 2.797zM212.485 6.753c-1.652-1.234-3.767-1.851-6.346-1.851-1.076 0-1.716.042-1.92.125a.763.763 0 0 0-.432.431c-.083.205-.125.854-.125 1.949v26.941c0 1.28.07 2.143.209 2.589.139.445.338.788.598 1.029.26.242.617.413 1.072.515.454.102 1.47.163 3.047.181V41h-14.973v-2.338c1.651-.018 2.662-.074 3.033-.168.65-.187 1.114-.542 1.392-1.065.278-.522.417-1.485.417-2.886v-27.5c0-.853-.041-1.372-.125-1.557-.083-.185-.241-.329-.473-.431-.232-.102-.71-.153-1.433-.153-2.023 0-3.642.26-4.857.779-1.216.52-2.361 1.401-3.437 2.644-1.077 1.244-1.995 2.858-2.756 4.843l-2.505-.891L186.879.866h1.948l.279 1.308h23.824l.223-1.308h2.031l4.092 11.411-2.505.891c-1.207-3.043-2.635-5.181-4.286-6.415zm-46.484 31.909a15.79 15.79 0 0 1 1.308-.056c.891 0 1.475-.092 1.754-.278.538-.352.807-.797.807-1.336 0-.389-.26-1.345-.779-2.867l-2.57-7.514h-14.066l-3.028 8.405c-.316.872-.473 1.475-.473 1.809 0 .372.097.696.292.974.195.279.459.487.793.627.334.139.872.208 1.614.208.501 0 .909.01 1.225.028V41h-11.607v-2.338c1.076 0 1.851-.106 2.324-.32.474-.213.886-.557 1.239-1.03.352-.473.816-1.47 1.392-2.991l12.113-32.147h4.553l12.083 32.459c.594 1.63 1.192 2.709 1.795 3.237s1.415.792 2.436.792h.612V41h-13.817v-2.338zm-6.547-31.478l-6.016 16.699h11.99l-5.974-16.699zM119.95 38.662h1.057c.947 0 1.638-.074 2.074-.223a2.386 2.386 0 0 0 1.085-.737c.288-.343.45-.7.487-1.072.093-.76.14-1.354.14-1.781V6.266L112.113 41h-2.782L96.571 6.767v27.498c0 1.4.12 2.348.362 2.843.241.495.616.877 1.127 1.148.51.271 1.424.406 2.741.406h.891V41H88.027v-2.338h.779c1.317 0 2.259-.139 2.825-.417.566-.279.969-.673 1.21-1.183s.362-1.517.362-3.02V8.687c0-1.419-.102-2.358-.306-2.816a2.022 2.022 0 0 0-1.016-1.023c-.473-.224-1.313-.336-2.519-.336h-1.335V2.174h12.264l11.462 30.755L122.95 2.174h11.834v2.338h-1.002c-1.206 0-2.017.103-2.435.309-.417.205-.747.565-.988 1.079s-.362 1.359-.362 2.537v25.605c0 1.614.098 2.663.292 3.145.195.483.52.849.975 1.099.454.251 1.294.376 2.518.376h1.002V41H119.95v-2.338zM75.317 23.201c-1.886.826-4.854 1.239-8.904 1.239h-7.106v9.964c0 1.484.084 2.421.251 2.811.222.538.529.914.918 1.127.39.214 1.178.32 2.366.32h1.336V41H49.149v-2.338h.918c1.28 0 2.152-.106 2.616-.32a2.013 2.013 0 0 0 1.016-1.002c.213-.454.32-1.312.32-2.574V8.214c0-1.234-.097-2.061-.292-2.482-.195-.42-.52-.729-.974-.925-.455-.197-1.35-.295-2.686-.295h-.918V2.174h15.348c4.661 0 7.874.297 9.638.891 2.21.705 4.034 1.911 5.474 3.618 1.439 1.707 2.159 3.878 2.159 6.513 0 2.245-.549 4.184-1.645 5.817-1.319 1.967-2.921 3.363-4.806 4.188zm-.816-14.862c-.929-1.308-2.193-2.194-3.791-2.658-1.115-.315-3.29-.473-6.524-.473h-4.879V21.49h5.994c3.029 0 5.153-.269 6.371-.807 1.217-.538 2.225-1.471 3.024-2.798.799-1.326 1.199-2.88 1.199-4.661 0-1.949-.465-3.577-1.394-4.885zM37.087 5.353c-.548.561-.821 1.616-.821 3.167v17.896c0 3.266-.613 5.989-1.837 8.169-1.225 2.18-3.006 3.906-5.344 5.176-2.338 1.271-5.056 1.907-8.155 1.907-2.932 0-5.613-.65-8.043-1.948-2.431-1.299-4.217-2.918-5.358-4.857s-1.712-4.374-1.712-7.306V8.52c0-1.233-.111-2.097-.334-2.592-.222-.495-.547-.855-.974-1.079-.427-.225-1.169-.337-2.226-.337H.891V2.174h15.002v2.338h-1.002c-1.225 0-2.097.122-2.617.365-.408.187-.714.504-.918.952-.204.449-.306 1.346-.306 2.691v17.495c0 3.12.376 5.433 1.127 6.937.751 1.504 2.004 2.767 3.757 3.788 1.754 1.022 3.679 1.532 5.775 1.532 2.116 0 4.12-.547 6.012-1.643 1.893-1.096 3.219-2.396 3.98-3.9.761-1.505 1.141-3.882 1.141-7.132V8.771c0-1.233-.121-2.12-.362-2.662-.241-.541-.607-.943-1.099-1.205-.492-.261-1.257-.392-2.296-.392H28V2.174h12.997v2.338h-.891c-1.466 0-2.472.281-3.019.841z"/></svg>