<svg xmlns="http://www.w3.org/2000/svg" width="90" height="22" viewBox="0 0 150 36.6">
 <path fill="#fff" fill-rule="evenodd" d="M99.88 15.63h.281c.48 0 .807-.043.98-.13a.784.784 0 0 0 .376-.38c.076-.167.115-.507.115-1.021v-3.684c0-.761-.062-1.288-.185-1.581-.129-.3-.35-.55-.631-.716-.297-.184-.672-.275-1.126-.275-.54 0-1.118.138-1.732.415s-1.208.686-1.781 1.226v4.615c0 .52.038.867.115 1.041.074.17.207.309.375.39.12.067.441.1.961.1h.29v.841h-5.165v-.841h.252c.497 0 .836-.041 1.017-.125a.723.723 0 0 0 .383-.445c.04-.107.06-.474.06-1.101V8.243h-1.702v-.831c.594-.066 1.038-.147 1.332-.24.293-.093.717-.294 1.271-.601h.721v1.902c.879-.741 1.631-1.243 2.254-1.506a4.814 4.814 0 0 1 1.894-.396c.546 0 1.029.092 1.449.276.42.183.762.432 1.025.745.263.314.438.671.525 1.071.053.247.08.621.08 1.121v4.405c0 .527.038.866.115 1.016.076.15.198.258.365.325s.577.1 1.231.1v.841H99.88zm-8.97-7.487c-.107.14-.257.453-.45.94l-2.928 7.388h-1.208l-2.308-5.757-2.278 5.757h-1.191l-2.958-7.387c-.187-.474-.341-.787-.461-.941a1.258 1.258 0 0 0-.445-.36 1.505 1.505 0 0 0-.666-.131v-.84h4.608v.84h-.321c-.394 0-.654.03-.78.09-.201.094-.301.241-.301.441 0 .187.077.487.23.901l2.074 5.475 2.02-5.08-.187-.472c-.207-.542-.447-.916-.721-1.124-.18-.134-.447-.211-.801-.231v-.84h4.594v.84h-.39c-.367 0-.604.03-.711.09-.187.107-.28.277-.28.511 0 .2.07.477.21.831l2.072 5.475 2.025-5.555c.107-.301.164-.471.17-.511.02-.073.03-.15.03-.23a.526.526 0 0 0-.22-.445c-.147-.111-.417-.166-.811-.166h-.37v-.84h3.884v.84c-.287.014-.52.064-.7.151-.181.086-.324.2-.431.34zm-18.071 7.953c-.731.41-1.603.615-2.618.615-1.615 0-2.827-.504-3.638-1.511-.811-1.008-1.216-2.192-1.216-3.554 0-.994.21-1.877.63-2.647a4.456 4.456 0 0 1 1.767-1.792c.757-.424 1.616-.636 2.577-.636.981 0 1.83.204 2.548.611.717.407 1.283 1.001 1.697 1.782.413.78.62 1.671.62 2.672 0 1.001-.212 1.892-.635 2.673-.424.781-1.001 1.376-1.732 1.787zm-.005-6.822c-.227-.547-.569-.973-1.026-1.276a2.731 2.731 0 0 0-1.547-.456c-.76 0-1.404.301-1.932.901-.667.748-1.001 1.835-1.001 3.263 0 1.375.284 2.423.851 3.143.514.641 1.212.961 2.092.961.567 0 1.073-.15 1.517-.45s.802-.779 1.076-1.436c.273-.658.41-1.43.41-2.318 0-.867-.147-1.645-.44-2.332zM60.492 15.04c-.668.607-1.293 1.037-1.877 1.291a4.39 4.39 0 0 1-1.757.38c-1.208 0-2.21-.485-3.008-1.456-.797-.971-1.196-2.141-1.196-3.509 0-.974.212-1.866.636-2.677.423-.811.982-1.43 1.676-1.857a4.274 4.274 0 0 1 2.283-.641c.634 0 1.221.11 1.761.331.541.22 1.035.55 1.482.991V3.478H58.81v-.851c.454-.04.869-.118 1.246-.235.377-.116.85-.318 1.417-.605h.751v12.142c0 .56.013.9.04 1.021.066.253.18.43.34.53s.47.15.931.15h.43v.841l-3.473.16zm0-4.775c0-.541-.102-.983-.305-1.326-.204-.344-.538-.643-1.001-.896a2.9 2.9 0 0 0-3.033.095c-.491.317-.875.774-1.152 1.371-.277.598-.415 1.32-.415 2.167 0 .801.128 1.493.385 2.077s.603 1.028 1.036 1.332c.434.303.878.455 1.332.455.447 0 .954-.128 1.521-.385a6.19 6.19 0 0 0 1.632-1.106zM46.5 15.63h.41c.407 0 .664-.032.771-.095.106-.064.16-.149.16-.256s-.1-.26-.3-.461a2.028 2.028 0 0 1-.111-.12l-2.662-3.052-1.643 1.242v1.311c0 .487.036.807.11.961.073.153.188.27.345.35s.459.12.906.12h.371v.841h-5.145v-.841c.58-.006.937-.03 1.071-.07a.83.83 0 0 0 .505-.39c.103-.187.155-.547.155-1.081V3.458h-1.731v-.831c.851-.066 1.733-.346 2.644-.84h.769v9.988l3.682-2.921c.588-.467.881-.778.881-.931 0-.094-.063-.167-.19-.221-.08-.033-.277-.05-.591-.05h-.53v-.84h5.079v.84c-.567 0-1.021.059-1.361.176-.34.116-.734.345-1.181.685l-2.894 2.228 3.416 3.728c.326.36.593.614.8.761s.414.248.621.305.53.089.971.095v.841H46.5zm-8.35-6.947a.847.847 0 0 1-.31-.05 2.072 2.072 0 0 1-.381-.22c-.367-.24-.674-.36-.921-.36-.333 0-.7.14-1.101.42-.507.361-.904.714-1.191 1.061v4.615c0 .4.022.672.065.816a.878.878 0 0 0 .586.595c.147.047.404.07.771.07h.33v.841h-5.175v-.841h.43c.407 0 .674-.036.801-.11a.92.92 0 0 0 .385-.415c.084-.177.126-.496.126-.956V8.243h-1.732v-.831c.486-.039.918-.12 1.297-.242a7.07 7.07 0 0 0 1.298-.599h.748v1.892a5.514 5.514 0 0 1 1.652-1.381c.627-.34 1.191-.511 1.691-.511.494 0 .885.117 1.172.351.286.233.43.517.43.851 0 .24-.095.452-.285.635a.95.95 0 0 1-.686.275zm-9.509 7.958c-.474 0-.873-.067-1.196-.2a1.956 1.956 0 0 1-.796-.586c-.21-.265-.35-.58-.401-.915-.8.627-1.525 1.067-2.172 1.321a5.35 5.35 0 0 1-1.962.38c-.921 0-1.668-.25-2.242-.751-.574-.5-.861-1.087-.861-1.761 0-.407.105-.794.316-1.161.21-.367.531-.691.962-.971.431-.281 1.107-.527 2.029-.741s2.202-.407 3.839-.581l.001-1.091c0-.74-.207-1.269-.622-1.586-.414-.317-.999-.476-1.755-.476-.375 0-.702.045-.983.135s-.507.214-.677.371a1.47 1.47 0 0 0-.377.535c-.033.074-.113.357-.24.851-.154.601-.464.901-.931.901a.84.84 0 0 1-.646-.265c-.163-.177-.245-.416-.245-.716 0-.44.163-.872.49-1.296s.826-.774 1.497-1.051 1.463-.416 2.377-.416c.854 0 1.585.132 2.192.395.608.264 1.055.642 1.342 1.135.2.34.3.96.3 1.86v3.849c0 .547.017.904.05 1.07.073.287.202.502.385.645.184.144.422.215.716.215.307 0 .674-.07 1.101-.211v.872c-.554.16-1.051.24-1.491.24zm-2.49-5.095c-1.549.227-2.507.384-2.874.471-.728.167-1.249.35-1.563.55-.313.201-.537.416-.671.646a1.412 1.412 0 0 0 .026 1.491c.15.244.362.436.636.576.273.14.564.21.871.21.434 0 .925-.103 1.472-.31.548-.207 1.249-.611 2.104-1.211zM11.794 15.63h.381c.34 0 .589-.026.745-.08a.865.865 0 0 0 .391-.265.71.71 0 0 0 .175-.386c.033-.273.05-.487.05-.64V3.979l-4.56 12.492H7.975L3.386 4.159v9.89c0 .503.043.844.13 1.022.087.178.23.323.406.413.183.098.512.146.986.146h.32v.841H.313v-.841h.28c.474 0 .813-.05 1.016-.15a.901.901 0 0 0 .436-.425c.086-.184.13-.546.13-1.086V4.85c0-.511-.037-.849-.11-1.013a.725.725 0 0 0-.366-.368c-.17-.08-.472-.121-.905-.121H.313v-.841h4.411l4.122 11.061 4.027-11.061h4.257v.841h-.361c-.434 0-.726.037-.876.111a.78.78 0 0 0-.355.388c-.087.185-.13.489-.13.913v9.209c0 .58.035.957.105 1.131.07.173.187.305.35.395.164.09.466.135.906.135h.361v.841h-5.336zM148.86 28.369a.95.95 0 0 1-.686.275.85.85 0 0 1-.31-.05 2.04 2.04 0 0 1-.38-.22c-.368-.24-.675-.36-.921-.36-.334 0-.701.14-1.101.42-.508.361-.905.714-1.192 1.061v4.615c0 .4.022.672.065.816.08.285.302.51.586.595.147.047.404.07.771.07h.33v.841h-5.175v-.841h.43c.407 0 .674-.036.801-.11a.927.927 0 0 0 .386-.415c.083-.177.125-.496.125-.956v-5.906h-1.732v-.831c.486-.039.918-.12 1.297-.242a7.04 7.04 0 0 0 1.298-.599h.748v1.892a5.527 5.527 0 0 1 1.652-1.381c.627-.34 1.191-.511 1.692-.511.493 0 .884.117 1.171.351.287.233.43.517.43.851 0 .24-.095.452-.285.635zm-11.922 7.688c-.73.41-1.603.615-2.617.615-1.615 0-2.828-.504-3.639-1.511-.811-1.008-1.216-2.192-1.216-3.554 0-.994.21-1.877.631-2.647a4.454 4.454 0 0 1 1.766-1.792c.758-.424 1.617-.636 2.578-.636.981 0 1.83.204 2.547.611.718.407 1.283 1.001 1.697 1.782.414.78.621 1.671.621 2.672s-.212 1.892-.636 2.673-1.001 1.376-1.732 1.787zm-.005-6.822c-.227-.547-.569-.973-1.026-1.276a2.728 2.728 0 0 0-1.546-.456c-.761 0-1.405.301-1.932.901-.668.748-1.001 1.835-1.001 3.263 0 1.375.283 2.423.851 3.143.513.641 1.211.961 2.092.961.567 0 1.072-.15 1.516-.45s.803-.779 1.076-1.436c.274-.658.411-1.43.411-2.318 0-.867-.147-1.645-.441-2.332zm-11.216 7.437c-.508 0-.968-.113-1.379-.34s-.692-.494-.842-.801c-.151-.307-.226-.841-.226-1.601v-6.156h-1.752v-.841c.563-.127 1.017-.324 1.362-.591.354-.28.64-.635.838-1.041.215-.427.389-1.071.523-1.932h.711v3.404h2.972v1.001h-2.972v6.035c0 .514.045.881.135 1.102.09.22.243.4.46.54s.459.21.726.21c.634 0 1.334-.283 2.102-.851v.971c-.876.594-1.762.891-2.658.891zm-10.345-1.081h.411c.447 0 .747-.04.901-.12a.687.687 0 0 0 .325-.34c.063-.147.095-.491.095-1.031v-5.896h-1.732v-.831a7.8 7.8 0 0 0 1.397-.277 7.57 7.57 0 0 0 1.286-.564h.731v8.028c0 .28.04.491.12.631s.191.242.335.305c.143.064.405.095.786.095h.47v.841h-5.125zm2.543-11.261c-.321 0-.594-.113-.821-.34a1.119 1.119 0 0 1-.34-.821c0-.32.113-.592.34-.816.227-.223.5-.335.821-.335.32 0 .594.112.821.335.226.224.34.496.34.816s-.114.594-.34.821c-.227.227-.501.34-.821.34zm-7.257 10.671c-.668.607-1.293 1.037-1.877 1.291a4.39 4.39 0 0 1-1.757.38c-1.208 0-2.211-.485-3.008-1.456s-1.196-2.141-1.196-3.509c0-.974.212-1.866.636-2.677.423-.811.982-1.43 1.676-1.857a4.273 4.273 0 0 1 2.282-.641c.634 0 1.222.11 1.762.331.541.22 1.034.55 1.482.991v-4.415h-1.682v-.851c.454-.04.869-.118 1.246-.235.377-.116.849-.318 1.417-.605h.75V33.89c0 .56.014.9.04 1.021.067.253.181.43.341.53s.47.15.931.15h.43v.841l-3.473.16zm0-4.775c0-.541-.102-.983-.306-1.326-.203-.344-.537-.643-1.001-.896a2.903 2.903 0 0 0-3.033.095c-.49.317-.874.774-1.151 1.371-.277.598-.415 1.32-.415 2.167 0 .801.128 1.493.385 2.077s.602 1.028 1.036 1.332c.434.303.878.455 1.332.455.447 0 .954-.128 1.521-.385a6.19 6.19 0 0 0 1.632-1.106zm-14.94 4.949a2.98 2.98 0 0 0 1.647.466c.52 0 1.024-.121 1.511-.365s1.078-.719 1.772-1.427l.64.521c-.487.581-.959 1.041-1.416 1.381-.457.341-.889.579-1.296.716s-.884.205-1.432.205c-.981 0-1.815-.2-2.502-.6-.787-.461-1.391-1.061-1.812-1.802-.42-.741-.63-1.615-.63-2.623 0-1.054.203-1.955.61-2.702a4.517 4.517 0 0 1 1.707-1.767c.731-.43 1.576-.646 2.537-.646.714 0 1.335.112 1.862.335s.974.559 1.341 1.009c.367.449.634.963.801 1.542.094.34.147.779.16 1.318h-7.076c-.021.328-.031.572-.031.733 0 .842.147 1.593.441 2.251.293.659.682 1.144 1.166 1.455zm3.649-5.369c-.1-.614-.242-1.068-.426-1.362a1.943 1.943 0 0 0-.781-.7 2.437 2.437 0 0 0-1.136-.261c-.42 0-.814.087-1.181.261-.357.165-.67.412-.916.72-.243.307-.455.754-.635 1.342zm-19.963 5.785h.421c.413 0 .675-.028.785-.085a.287.287 0 0 0 .165-.275c0-.074-.02-.15-.06-.23-.013-.034-.146-.224-.4-.571l-3.197-4.271-3.497 4.399c-.213.261-.333.421-.36.482a.436.436 0 0 0-.06.21c0 .127.077.221.23.281.1.04.337.06.711.06h.42v.841H70.04v-.841c.413 0 .715-.028.905-.085.191-.057.382-.158.576-.305.193-.147.44-.404.741-.771l4.207-5.078-3.737-4.932c-.373-.498-.679-.808-.915-.929-.237-.121-.619-.182-1.147-.182v-.841h5.336v.841h-.42c-.4 0-.654.027-.761.081a.275.275 0 0 0-.16.263c0 .081.02.162.06.242.04.081.16.256.361.526l2.616 3.553 2.853-3.554c.267-.336.401-.592.401-.767 0-.108-.052-.192-.155-.253-.104-.06-.322-.091-.656-.091h-.51v-.841h4.529v.841c-.54 0-.929.057-1.166.171s-.565.426-.986.936l-3.643 4.372 4.299 5.643c.274.36.504.615.691.765s.367.254.54.31c.174.057.461.085.861.085v.841h-5.356zm-15.667-.416a2.977 2.977 0 0 0 1.646.466c.521 0 1.025-.121 1.512-.365s1.078-.719 1.772-1.427l.64.521c-.487.581-.959 1.041-1.416 1.381-.457.341-.889.579-1.296.716s-.885.205-1.432.205c-.981 0-1.815-.2-2.502-.6-.788-.461-1.392-1.061-1.812-1.802s-.631-1.615-.631-2.623c0-1.054.204-1.955.611-2.702a4.517 4.517 0 0 1 1.707-1.767c.73-.43 1.576-.646 2.537-.646.714 0 1.335.112 1.862.335s.974.559 1.341 1.009c.367.449.634.963.801 1.542.093.34.147.779.16 1.318H62.16c-.02.328-.03.572-.03.733 0 .842.147 1.593.441 2.251.293.659.682 1.144 1.166 1.455zm3.648-5.369c-.1-.614-.242-1.068-.425-1.362a1.95 1.95 0 0 0-.781-.7 2.437 2.437 0 0 0-1.136-.261c-.42 0-.814.087-1.181.261-.357.165-.67.412-.916.72-.244.307-.455.754-.636 1.342zm-10.28-5.691c-.594-.444-1.354-.666-2.282-.666-.387 0-.617.015-.691.045a.274.274 0 0 0-.155.156c-.03.073-.045.307-.045.7v9.69c0 .46.025.77.075.931.05.16.122.283.216.37a.8.8 0 0 0 .385.185c.163.037.529.059 1.096.065v.841h-5.385v-.841c.594-.006.957-.027 1.091-.06a.78.78 0 0 0 .5-.383c.1-.188.15-.534.15-1.038v-9.891c0-.306-.015-.493-.045-.56a.315.315 0 0 0-.17-.155c-.083-.036-.255-.055-.515-.055-.728 0-1.31.094-1.747.281s-.849.504-1.236.951-.718 1.027-.991 1.741l-.901-.32 1.441-4.104h.701l.1.47h8.569l.08-.47h.73l1.472 4.104-.901.32c-.434-1.094-.948-1.863-1.542-2.307zm-10.43 12.247c-.554.16-1.051.24-1.491.24-.474 0-.873-.067-1.196-.2a1.956 1.956 0 0 1-.796-.586c-.21-.265-.35-.58-.401-.915-.8.627-1.525 1.067-2.172 1.321a5.35 5.35 0 0 1-1.962.38c-.921 0-1.668-.25-2.242-.751-.574-.5-.861-1.087-.861-1.761 0-.407.105-.794.316-1.161.21-.367.531-.691.962-.971.431-.281 1.107-.527 2.029-.741s2.202-.407 3.839-.581l.001-1.091c0-.74-.207-1.269-.622-1.586-.414-.317-.999-.476-1.755-.476-.375 0-.702.045-.983.135s-.507.214-.677.371a1.47 1.47 0 0 0-.377.535c-.033.074-.113.357-.24.851-.154.601-.464.901-.931.901a.84.84 0 0 1-.646-.265c-.163-.177-.245-.416-.245-.716 0-.44.163-.872.49-1.296s.826-.774 1.497-1.051 1.463-.416 2.377-.416c.854 0 1.585.132 2.192.395.608.264 1.055.642 1.342 1.135.2.34.3.96.3 1.86v3.849c0 .547.017.904.05 1.07.073.287.202.502.385.645.184.144.422.215.716.215.307 0 .674-.07 1.101-.211zm-3.981-4.855c-1.549.227-2.507.384-2.874.471-.728.167-1.249.35-1.563.55-.313.201-.537.416-.671.646a1.412 1.412 0 0 0 .026 1.491c.15.244.362.436.636.576.273.14.564.21.871.21.434 0 .925-.103 1.472-.31.548-.207 1.249-.611 2.104-1.211zm-19.302 4.925v-.841h.441c.427 0 .714-.036.861-.11a.745.745 0 0 0 .34-.365c.08-.17.12-.462.12-.876v-9.499c0-.484-.037-.808-.11-.973a.69.69 0 0 0-.32-.353c-.14-.07-.437-.106-.891-.106h-.441v-.841h5.416v.841h-.501c-.387 0-.66.037-.821.111a.718.718 0 0 0-.35.323c-.073.142-.11.394-.11.757v9.74c0 .447.017.714.05.801.04.12.127.207.26.26.094.04.364.06.811.06h.751c.861 0 1.608-.125 2.242-.375a4.615 4.615 0 0 0 1.642-1.091c.46-.478.904-1.19 1.331-2.138l.891.301-1.562 4.374zm-10.67.24a3.15 3.15 0 0 1-1.556-.41c-.491-.274-.976-.741-1.457-1.402-.681.608-1.281 1.035-1.802 1.282a5.62 5.62 0 0 1-2.432.53c-.968 0-1.835-.195-2.603-.585-.767-.391-1.359-.916-1.776-1.577a3.973 3.973 0 0 1-.626-2.162c0-.734.175-1.401.526-2.002.35-.601.875-1.134 1.576-1.601.514-.341 1.148-.631 1.902-.871-.554-.227-.974-.467-1.261-.721a2.564 2.564 0 0 1-.891-1.962c0-.807.31-1.485.931-2.032.701-.621 1.541-.931 2.522-.931.968 0 1.769.284 2.403.851s.951 1.238.951 2.012a2.809 2.809 0 0 1-.391 1.446c-.26.444-.624.81-1.091 1.096-.294.194-.681.347-1.161.461.581.187 1.071.432 1.471.736.401.303.813.745 1.237 1.326.423.58.835 1.318 1.236 2.212.647-1.435.971-2.509.971-3.223 0-.24-.074-.414-.22-.521-.147-.106-.441-.16-.881-.16h-.591v-.851h4.665v.851h-.561c-.407 0-.681.029-.821.085a.883.883 0 0 0-.37.296c-.107.14-.184.353-.23.64a10.696 10.696 0 0 1-1.512 3.934c.134.367.357.751.671 1.151.314.401.587.668.821.801.233.134.483.2.75.2.341 0 .624-.105.851-.315s.341-.456.341-.736c0-.233-.044-.417-.13-.55-.094-.134-.291-.274-.591-.421-.24-.12-.41-.257-.511-.41a.918.918 0 0 1-.15-.511c0-.267.085-.483.256-.65.17-.167.395-.251.675-.251.474 0 .886.206 1.236.616.351.41.526.929.526 1.557 0 .747-.284 1.396-.851 1.946a2.837 2.837 0 0 1-2.052.826zm-5.6-9.929c.377-.394.565-.885.565-1.472 0-.627-.185-1.138-.555-1.531a1.793 1.793 0 0 0-1.357-.591c-.54 0-.994.194-1.361.581s-.551.89-.551 1.511c0 .607.186 1.108.556 1.502.37.393.822.59 1.356.59.521 0 .97-.197 1.347-.59zm1.806 6.836-1.571-3.083a9.283 9.283 0 0 0-.551-.931 3.187 3.187 0 0 0-.565-.63 4.27 4.27 0 0 0-.876-.571c-.821.407-1.325.681-1.512.821-.307.22-.58.492-.82.816-.241.323-.418.65-.531.981-.113.33-.17.675-.17 1.036 0 .841.28 1.598.841 2.272.714.861 1.618 1.291 2.712 1.291.541 0 1.065-.117 1.572-.35.701-.334 1.274-.727 1.722-1.181a7.033 7.033 0 0 1-.251-.471z"/>
</svg>